<svg width="64" height="192" viewBox="0 0 64 192" fill="none" xmlns="http://www.w3.org/2000/svg">
  <!-- Fishing Rod - 1x3 ratio (three times as tall as wide) -->
  <g transform="translate(8, 8)">
    <!-- Fishing rod handle (cork) -->
    <rect x="20" y="140" width="8" height="32" fill="#D2B48C" rx="1"/>
    <rect x="21" y="141" width="6" height="30" fill="#F5DEB3" rx="0.5"/>
    <!-- Handle texture lines -->
    <line x1="21" y1="144" x2="27" y2="144" stroke="#CD853F" stroke-width="0.5"/>
    <line x1="21" y1="148" x2="27" y2="148" stroke="#CD853F" stroke-width="0.5"/>
    <line x1="21" y1="152" x2="27" y2="152" stroke="#CD853F" stroke-width="0.5"/>
    <line x1="21" y1="156" x2="27" y2="156" stroke="#CD853F" stroke-width="0.5"/>
    <line x1="21" y1="160" x2="27" y2="160" stroke="#CD853F" stroke-width="0.5"/>
    <line x1="21" y1="164" x2="27" y2="164" stroke="#CD853F" stroke-width="0.5"/>
    <line x1="21" y1="168" x2="27" y2="168" stroke="#CD853F" stroke-width="0.5"/>
    
    <!-- Reel seat -->
    <rect x="18" y="120" width="12" height="20" fill="#2F4F4F" rx="2"/>
    <rect x="19" y="121" width="10" height="18" fill="#4682B4" rx="1"/>
    
    <!-- Reel -->
    <circle cx="24" cy="130" r="6" fill="#2F4F4F"/>
    <circle cx="24" cy="130" r="4" fill="#708090"/>
    <circle cx="24" cy="130" r="2" fill="#A9A9A9"/>
    
    <!-- Main rod shaft (carbon fiber) -->
    <rect x="22" y="20" width="4" height="100" fill="#2F2F2F" rx="2"/>
    <rect x="22.5" y="20.5" width="3" height="99" fill="#404040" rx="1.5"/>
    
    <!-- Rod tip section -->
    <rect x="23" y="8" width="2" height="15" fill="#2F2F2F" rx="1"/>
    <rect x="23.5" y="8.5" width="1" height="14" fill="#404040" rx="0.5"/>
    
    <!-- Fishing line guides -->
    <circle cx="24" cy="30" r="2" fill="none" stroke="#C0C0C0" stroke-width="1"/>
    <circle cx="24" cy="30" r="1.5" fill="none" stroke="#2F4F4F" stroke-width="0.5"/>
    
    <circle cx="24" cy="50" r="1.8" fill="none" stroke="#C0C0C0" stroke-width="1"/>
    <circle cx="24" cy="50" r="1.3" fill="none" stroke="#2F4F4F" stroke-width="0.5"/>
    
    <circle cx="24" cy="70" r="1.6" fill="none" stroke="#C0C0C0" stroke-width="1"/>
    <circle cx="24" cy="70" r="1.1" fill="none" stroke="#2F4F4F" stroke-width="0.5"/>
    
    <circle cx="24" cy="90" r="1.4" fill="none" stroke="#C0C0C0" stroke-width="1"/>
    <circle cx="24" cy="90" r="0.9" fill="none" stroke="#2F4F4F" stroke-width="0.5"/>
    
    <circle cx="24" cy="110" r="1.2" fill="none" stroke="#C0C0C0" stroke-width="1"/>
    <circle cx="24" cy="110" r="0.7" fill="none" stroke="#2F4F4F" stroke-width="0.5"/>
    
    <!-- Rod tip guide -->
    <circle cx="24" cy="12" r="1" fill="none" stroke="#C0C0C0" stroke-width="1"/>
    
    <!-- Fishing line -->
    <path d="M24 8 Q24 6, 20 4" stroke="#87CEEB" stroke-width="1" fill="none"/>
    <path d="M24 12 L24 30 M24 30 L24 50 M24 50 L24 70 M24 70 L24 90 M24 90 L24 110 M24 110 L24 130" 
          stroke="#87CEEB" stroke-width="0.8" fill="none"/>
  </g>
</svg>
